# xmcd
#
# Track frame offsets: 
#        150
#        22164
#        35517
#        55966
#        69359
#        82446
#        102945
#        123100
#        141129
#        157369
#        171419
#        181246
#        192066
#        198870
#        215310
#        230711
#
# Disc length: 3207 seconds
#
# Revision: 0
# Processed by: cddbd v1.5.2PL0 Copyright (c) Steve Scherf et al.
# Submitted via: ExactAudioCopy v0.99pb4
#
DISCID=eb0c8510
DTITLE=Dimitris Papadimitriou[Fwteinh Darra] - monitor
DYEAR=2008
DGENRE=Blues
TTITLE0=h anoiksh
TTITLE1=xarakse
TTITLE2=yparxeis mesa moy ki esy
TTITLE3=oyden newteron
TTITLE4=stoxasmos
TTITLE5=stalsimo
TTITLE6=agaph fonissa
TTITLE7=agapes pou m' anathrepsan
TTITLE8=ta logia hsan tis thalassas
TTITLE9=feuga
TTITLE10=rikse me, nyxta
TTITLE11=logia kai filia
TTITLE12=stou kairou th zygaria
TTITLE13=kokkina garifala
TTITLE14=ekei pou perase h fwtia
TTITLE15=sthn erhmia tou kosmou
EXTD=
EXTT0=
EXTT1=
EXTT2=
EXTT3=
EXTT4=
EXTT5=
EXTT6=
EXTT7=
EXTT8=
EXTT9=
EXTT10=
EXTT11=
EXTT12=
EXTT13=
EXTT14=
EXTT15=
PLAYORDER=
